Coordinates
version=1
nRows=16
nColumns=40
inDegrees=yes

Units are S.I. units (second, meters, Newtons, ...)
Angles are in degrees.

endheader
time	pelvis_tilt	pelvis_list	pelvis_rotation	pelvis_tx	pelvis_ty	pelvis_tz	hip_flexion_r	hip_adduction_r	hip_rotation_r	knee_angle_r	knee_angle_r_beta	ankle_angle_r	subtalar_angle_r	mtp_angle_r	hip_flexion_l	hip_adduction_l	hip_rotation_l	knee_angle_l	knee_angle_l_beta	ankle_angle_l	subtalar_angle_l	mtp_angle_l	lumbar_extension	lumbar_bending	lumbar_rotation	arm_flex_r	arm_add_r	arm_rot_r	elbow_flex_r	pro_sup_r	wrist_flex_r	wrist_dev_r	arm_flex_l	arm_add_l	arm_rot_l	elbow_flex_l	pro_sup_l	wrist_flex_l	wrist_dev_l
      6.85750000	     -6.56711694	     -4.93482962	      2.21940590	      1.02897282	      0.91646186	      0.45826452	      3.56596971	     -2.24808248	    -14.41257144	     29.37653347	     29.37653347	     13.99369602	     -2.28537892	    -12.87285230	     30.81417457	     -5.70933936	     -2.15728611	     26.45712172	     26.45712172	      6.00633510	    -14.47270906	      6.74908507	     -9.61668858	      5.42761890	      6.54555583	     39.78884234	    -14.98329688	     -4.87966352	    127.22979106	     43.62182450	      0.00000000	      0.00000000	    -10.87228877	     -7.45954996	     -0.04669036	     27.44967387	     45.49245916	      0.00000000	      0.00000000
      6.86885714	     -6.51112918	     -4.82956487	      2.00467721	      1.02863826	      0.91790084	      0.45579430	      5.08641020	     -3.09799115	    -13.90928936	     33.02477513	     33.02477513	     12.53461472	     -3.36058859	    -13.52672734	     30.03232656	     -5.57733067	     -2.50511634	     26.27193084	     26.27193084	      6.53594257	    -14.31589868	      6.50796351	     -9.62140980	      5.37124303	      6.21822753	     38.34578656	    -14.72272880	     -4.53555181	    126.92368966	     43.61977731	      0.00000000	      0.00000000	     -9.90565892	     -7.43642160	     -0.07711019	     27.90446205	     45.51856633	      0.00000000	      0.00000000
      6.88021429	     -6.56393574	     -4.77303605	      1.74024675	      1.02804757	      0.91914741	      0.45360609	      6.89851966	     -3.80405420	    -13.18427441	     36.77896705	     36.77896705	     10.68390874	     -4.94437071	    -14.18484192	     29.34131827	     -5.51586588	     -2.89476622	     26.00132462	     26.00132462	      6.97705250	    -14.15896667	      6.25514227	     -9.51800500	      5.34045698	      6.02911434	     36.66136092	    -14.73878247	     -4.31437734	    126.60818165	     43.62387108	      0.00000000	      0.00000000	     -8.92266266	     -7.46345613	     -0.20449437	     28.62492724	     45.55999595	      0.00000000	      0.00000000
      6.89157143	     -6.52899460	     -4.80663508	      1.45389899	      1.02738478	      0.92038584	      0.45169580	      8.70175836	     -4.24944779	    -12.20983392	     40.44826937	     40.44826937	      8.28914713	     -7.17889608	    -15.23786756	     28.59584656	     -5.58216593	     -3.29336416	     25.79137036	     25.79137036	      7.32262873	    -13.97872384	      5.74711601	     -9.56882807	      5.37600186	      6.10091959	     34.68268026	    -14.92771376	     -4.40573206	    126.32564501	     43.65661949	      0.00000000	      0.00000000	     -7.91305139	     -7.52639537	     -0.60165673	     30.08565233	     45.65122896	      0.00000000	      0.00000000
      6.90292857	     -6.43154874	     -4.68344726	      1.16479198	      1.02656824	      0.92155799	      0.44977946	     10.55216445	     -5.01183786	    -11.59713527	     44.27295086	     44.27295086	      6.33046792	     -8.26009555	    -15.18931662	     27.76580904	     -5.47581996	     -3.72189187	     25.55592439	     25.55592439	      7.73091950	    -13.79717489	      5.50760729	     -9.70250725	      5.27905739	      5.87298617	     32.89801027	    -14.67177485	     -4.09473594	    125.67119697	     43.66265687	      0.00000000	      0.00000000	     -6.70305898	     -7.61186672	     -0.69428190	     30.81419490	     45.68665588	      0.00000000	      0.00000000
      6.91428571	     -6.45404951	     -4.67663906	      0.83361066	      1.02551715	      0.92248301	      0.44812642	     12.62925901	     -5.48026378	    -10.76528888	     47.99299196	     47.99299196	      4.36188384	     -9.71806755	    -14.67363421	     27.07214731	     -5.50728557	     -4.18354701	     25.28884608	     25.28884608	      8.09285347	    -13.63419225	      5.23784481	     -9.68815616	      5.28774387	      5.72431909	     30.90604402	    -14.70863305	     -3.92943018	    124.66895070	     43.68481417	      0.00000000	      0.00000000	     -5.57369658	     -7.77602110	     -0.84874594	     31.75458448	     45.72918076	      0.00000000	      0.00000000
      6.92564286	     -6.45222541	     -4.75969861	      0.49444422	      1.02430595	      0.92328891	      0.44686451	     14.81996111	     -5.65524677	     -9.76071301	     51.77601595	     51.77601595	      3.42868463	    -10.83310145	    -11.02720597	     26.41208115	     -5.69808017	     -4.66993171	     25.08333150	     25.08333150	      8.17194775	    -13.28645130	      4.09813108	     -9.73032264	      5.33326515	      5.63744295	     28.82672634	    -14.62093503	     -4.39055568	    123.06318667	     43.79592418	      0.00000000	      0.00000000	     -5.08714337	     -8.06436451	     -1.43552364	     34.81401378	     45.84348075	      0.00000000	      0.00000000
      6.93700000	     -6.38449584	     -4.68424512	      0.16615597	      1.02299357	      0.92410498	      0.44545685	     16.81618626	     -6.09018595	     -9.03226386	     55.08758340	     55.08758340	      1.83892641	    -11.86544690	    -10.35423615	     25.68770804	     -5.65939111	     -5.08380515	     24.90603608	     24.90603608	      8.51420656	    -13.20075469	      3.90859624	     -9.86324040	      5.30157184	      5.48818373	     26.75587563	    -14.58133111	     -4.00309283	    121.63601099	     43.82325316	      0.00000000	      0.00000000	     -3.66614864	     -8.27199780	     -1.50911665	     35.60500737	     45.87788663	      0.00000000	      0.00000000
      6.94835714	     -6.35801861	     -4.77593908	     -0.13957044	      1.02147468	      0.92490209	      0.44425770	     18.83912461	     -6.21176015	     -8.31714654	     58.10973437	     58.10973437	      0.67444484	    -12.84876673	     -8.85115368	     25.03950729	     -5.80962341	     -5.45363869	     24.72415982	     24.72415982	      8.81306062	    -12.90527876	      3.58600377	     -9.96300817	      5.39985552	      5.45928269	     24.66911891	    -14.85735463	     -4.02010479	    119.28079456	     43.89851840	      0.00000000	      0.00000000	     -2.33726082	     -8.48542730	     -1.57620857	     36.83021531	     45.91342485	      0.00000000	      0.00000000
      6.95971429	     -6.21957432	     -4.79366944	     -0.43951362	      1.02003562	      0.92565664	      0.44317178	     20.85634379	     -6.42752673	     -7.67715992	     61.23339732	     61.23339732	      1.50143541	    -12.49140086	     -3.05995306	     24.26729269	     -5.91262651	     -5.95417366	     24.56514453	     24.56514453	      9.04220551	    -12.61077765	      2.66995190	    -10.10488966	      5.41273730	      4.82563998	     23.13564485	    -14.29410488	     -3.75162419	    116.01779011	     44.05421422	      0.00000000	      0.00000000	     -1.76720183	     -9.13744682	     -1.20970819	     39.64509699	     45.92829226	      0.00000000	      0.00000000
      6.97107143	     -6.10931786	     -4.81460743	     -0.72320317	      1.01847601	      0.92650193	      0.44208139	     22.64473594	     -6.59260911	     -7.14203188	     63.53703074	     63.53703074	      0.74433134	    -13.13401719	     -2.64666111	     23.51745083	     -5.97600871	     -6.34211800	     24.37227008	     24.37227008	      9.41957425	    -12.34014451	      2.43536914	    -10.28167409	      5.45313334	      4.88171493	     21.00843317	    -14.54557910	     -3.74797617	    113.43656766	     44.13714164	      0.00000000	      0.00000000	     -0.10207549	     -9.40353848	     -1.22249554	     40.66192411	     45.96364590	      0.00000000	      0.00000000
      6.98242857	     -5.96614683	     -4.83817793	     -1.00173205	      1.01692083	      0.92737551	      0.44112448	     24.35242589	     -6.72314828	     -6.65949641	     65.54012796	     65.54012796	      0.55514237	    -13.43559953	     -1.53900918	     22.72910302	     -6.07351093	     -6.84805902	     24.17503113	     24.17503113	      9.77738203	    -11.89772387	      1.98960069	    -10.45244393	      5.48527011	      4.47871054	     19.38435899	    -14.04647031	     -3.91106185	    109.70298148	     44.28477810	      0.00000000	      0.00000000	      1.12414912	     -9.96345639	     -0.77820984	     42.17774347	     45.96295583	      0.00000000	      0.00000000
      6.99378571	     -5.80022325	     -4.87910973	     -1.26934490	      1.01534090	      0.92834599	      0.44019843	     25.91280035	     -6.82407902	     -6.27136961	     67.08094639	     67.08094639	      0.33255922	    -13.71989516	     -1.28466593	     21.89105498	     -6.15171935	     -7.26085145	     23.92469453	     23.92469453	     10.14018541	    -11.56166657	      1.72731548	    -10.68717504	      5.54544851	      4.53027112	     17.45318072	    -14.23795956	     -3.91225087	    106.38368636	     44.39462054	      0.00000000	      0.00000000	      2.78293966	    -10.33528754	     -0.61262608	     43.47629247	     45.98540823	      0.00000000	      0.00000000
      7.00514286	     -5.69394288	     -4.85732237	     -1.54273834	      1.01380074	      0.92925349	      0.43941185	     27.46933315	     -6.94990219	     -5.88156429	     68.25952152	     68.25952152	      0.19865945	    -13.93764549	     -1.27084194	     21.05993618	     -6.15984872	     -7.71298083	     23.56939104	     23.56939104	     10.48327661	    -11.22601174	      1.55273602	    -10.84382141	      5.52944344	      4.51776954	     15.37756357	    -14.27778895	     -3.80610932	    103.47516036	     44.47961929	      0.00000000	      0.00000000	      4.42491325	    -10.67515167	     -0.54282112	     44.57753416	     46.00928879	      0.00000000	      0.00000000
      7.01650000	     -5.55657396	     -4.92415795	     -1.82776143	      1.01211864	      0.93031476	      0.43872098	     28.87573539	     -6.98613522	     -5.62608774	     68.97484800	     68.97484800	      0.14143594	    -13.98407041	     -1.26205204	     20.18173675	     -6.27381765	     -8.22772218	     23.16947585	     23.16947585	     10.79189157	    -10.76375731	      1.30414256	    -11.11589274	      5.54617016	      4.60422695	     13.85995462	    -14.38443882	     -4.14177975	     99.08697915	     44.62972995	      0.00000000	      0.00000000	      6.13512238	    -11.08223657	     -0.20712948	     45.95913491	     46.01417530	      0.00000000	      0.00000000
      7.02785714	     -5.36332435	     -4.97556199	     -2.05001284	      1.01066086	      0.93132619	      0.43806305	     30.08121079	     -6.99599103	     -5.38115661	     69.30049712	     69.30049712	      0.26608018	    -13.96916194	     -1.34155400	     19.24930512	     -6.34136091	     -8.64323268	     22.81063798	     22.81063798	     11.15717487	    -10.30251652	      0.94688168	    -11.25934002	      5.65664392	      4.23550572	     12.80013989	    -13.84848314	     -4.37061548	     94.17259829	     44.79746490	      0.00000000	      0.00000000	      7.44976073	    -11.78076886	      0.50088003	     47.44650970	     45.98902499	      0.00000000	      0.00000000
